<?xml version="1.0" encoding="UTF-8"?><svg viewBox="0 0 200 38" xmlns="http://www.w3.org/2000/svg" fill="none"><g><title>Layer 1</title><path fill-rule="evenodd" clip-rule="evenodd" d="m198.725,21.68l-3.16,0l-0.72,-12.19999l0,-7.56l4.64,0l0,7.56l-0.76,12.19999zm-1.56,8.56c-1.44,0 -2.64,-1.2 -2.64,-2.64c0,-1.4 1.2,-2.6 2.64,-2.6c1.44,0 2.6,1.2 2.6,2.6c0,1.44 -1.16,2.64 -2.6,2.64z" fill="#FF660A" id="svg_1"/><path fill-rule="evenodd" clip-rule="evenodd" d="m184.798,3.6c0,1.44 1.2,2.6 2.64,2.6c1.44,0 2.6,-1.16 2.6,-2.6c0,-1.44 -1.16,-2.6 -2.6,-2.6c-1.44,0 -2.64,1.16 -2.64,2.6zm-183.798,34.32l4.2,0l0,-13.92c1.28,3.8 4.24,6.32 8.12,6.32c5.28,0 9.24,-4.6 9.24,-10.6c0,-6.04 -4.68,-10.64 -10.84,-10.64c-6.16,0 -10.72,4.6 -10.72,10.64l0,18.2zm180.638,0.32c6.08,0.32 7.88,-3 7.88,-7.4l0,-21.36l-4.2,0l0,21.36c0,2.88 -0.72,3.72 -3.68,3.64l0,3.76zm-169.918,-25.28c-3.72,0 -6.52,2.88 -6.52,6.76c0,3.84 2.8,6.72 6.72,6.72c3.48,0 6.28,-2.88 6.28,-6.72c0,-3.88 -2.8,-6.76 -6.48,-6.76zm23.9934,0c-3.48,0 -6.32,2.88 -6.32,6.76c0,3.84 2.84,6.72 6.32,6.72c3.92,0 6.72,-2.88 6.72,-6.72c0,-3.88 -2.8,-6.76 -6.72,-6.76zm-1.2,17.36c-5.48,0 -9.44,-4.6 -9.44,-10.6c0,-6.04 3.96,-10.64 9.24,-10.64c3.88,0 6.84,2.52 8.12,6.32l0,-5.92l4.2,0l0,13.16c0,2.48 1,3.56 3.48,3.56l0.84,0l0,3.72l-0.84,0c-4.36,0 -6.76,-1.64 -7.44,-5.04c-1.56,3.28 -4.56,5.44 -8.16,5.44zm18.1781,-0.4l17.04,0l0,-3.72l-15.84,0l15.84,-9.84l0,-6.88l-17.04,0l0,3.72l15.88,0l-15.88,9.84l0,6.88zm29.761,-16.96c-3.48,0 -6.32,2.88 -6.32,6.76c0,3.84 2.84,6.72 6.32,6.72c3.92,0 6.72,-2.88 6.72,-6.72c0,-3.88 -2.8,-6.76 -6.72,-6.76zm-1.2,17.36c-5.48,0 -9.44,-4.6 -9.44,-10.6c0,-6.04 3.96,-10.64 9.24,-10.64c3.88,0 6.84,2.52 8.12,6.32l0,-5.92l4.2,0l0,13.16c0,2.48 1,3.56 3.48,3.56l0.84,0l0,3.72l-0.84,0c-4.36,0 -6.76,-1.64 -7.44,-5.04c-1.56,3.28 -4.56,5.44 -8.16,5.44zm18.6163,-0.4l4.2002,0l0,-11.56c0,-3.92 3.52,-6.28 8,-5.04l0,-4c-3.32,-0.8 -6.56,0.44 -8,5.56l0,-5.4l-4.2002,0l0,20.44zm14.5562,-8.48l0,-11.96l4.2,0l0,11.96c0,3 2.16,5 5.12,5c2.88,0 5.08,-2 5.08,-5l0,-11.96l4.2,0l0,11.96c0,5.28 -3.96,8.88 -9.28,8.88c-5.4,0 -9.32,-3.6 -9.32,-8.88zm27.529,8.48l7.12,0l7.16,-20.44l-4.28,0l-6.28,19.16l-6.32,-19.16l-4.56,0l7.16,20.44zm24.836,-16.96c-3.48,0 -6.32,2.88 -6.32,6.76c0,3.84 2.84,6.72 6.32,6.72c3.92,0 6.72,-2.88 6.72,-6.72c0,-3.88 -2.8,-6.76 -6.72,-6.76zm-1.2,17.36c-5.48,0 -9.44,-4.6 -9.44,-10.6c0,-6.04 3.96,-10.64 9.24,-10.64c3.88,0 6.84,2.52 8.12,6.32l0,-5.92l4.2,0l0,13.16c0,2.48 1,3.56 3.48,3.56l0.84,0l0,3.72l-0.84,0c-4.36,0 -6.76,-1.64 -7.44,-5.04c-1.56,3.28 -4.56,5.44 -8.16,5.44z" fill="#0096FF" id="svg_2"/></g></svg>