<?xml version="1.0" encoding="UTF-8"?><svg width="315.1000061035156" height="70.49999809265137" xmlns="http://www.w3.org/2000/svg" version="1.1"><g><title>Layer 1</title><path class="st1" d="m20.3,16.4c8.2,0 15.2,4.5 18.4,12.1l-7.3,2.5c-2,-4.5 -6.1,-7.3 -11.1,-7.3c-6.9,0 -12.2,5.4 -12.2,12.7c0,7.2 5.3,12.6 12.2,12.6c5,0 9.1,-2.7 11.1,-7.3l7.3,2.5c-3.1,7.6 -10.1,12.1 -18.4,12.1c-11.6,-0.1 -20.3,-8.7 -20.3,-20s8.7,-19.9 20.3,-19.9z" fill="#0096FF" id="svg_1"/><path class="st1" d="m64.1,16.4c11.5,0 20.3,8.6 20.3,19.9c0,11.2 -8.8,19.9 -20.3,19.9s-20.3,-8.6 -20.3,-19.9s8.7,-19.9 20.3,-19.9zm0,32.5c7,0 12.2,-5.4 12.2,-12.6c0,-7.3 -5.2,-12.7 -12.2,-12.7c-6.9,0 -12.2,5.4 -12.2,12.7c0,7.2 5.3,12.6 12.2,12.6z" fill="#0096FF" id="svg_2"/><path class="st1" d="m91.8,17.1l7.9,0l0,9.4c2,-6.2 6.5,-10.1 12.2,-10.1c6.2,0 10.9,4.3 12.6,10.7c1.8,-6.5 6.6,-10.7 12.8,-10.7c7.9,0 13.5,6.8 13.5,16.2l0,22.9l-7.9,0l0,-21.7c0,-5.9 -3.7,-10.2 -8.5,-10.2c-5.4,0 -9.2,4.3 -9.2,10.2l0,21.7l-7.9,0l0,-21.7c0,-5.9 -3.7,-10.2 -8.4,-10.2c-5.4,0 -9.2,4.3 -9.2,10.2l0,21.7l-7.9,0l0,-38.4z" fill="#0096FF" id="svg_3"/><path class="st1" d="m179.3,16.4c11.5,0 20.3,8.6 20.3,19.9c0,11.2 -7.4,19.9 -17.3,19.9c-7.3,0 -12.8,-4.7 -15.2,-11.8l0,26.1l-7.9,0l0,-34.2c0,-11.3 8.5,-19.9 20.1,-19.9zm0.4,32.5c6.5,0 11.8,-5.4 11.8,-12.6c0,-7.3 -5.2,-12.7 -12.1,-12.7c-7,0 -12.2,5.4 -12.2,12.7c-0.1,7.2 5.1,12.6 12.5,12.6z" fill="#0096FF" id="svg_4"/><path class="st1" d="m245.5,17.1l0,24.7c0,4.7 1.9,6.7 6.5,6.7l1.6,0l0,7l-1.6,0c-8.2,0 -12.7,-3.1 -13.9,-9.5c-2.9,6.1 -8.5,10.2 -15.3,10.2c-10.3,0 -17.7,-8.6 -17.7,-19.9s7.4,-19.9 17.3,-19.9c7.3,0 12.8,4.7 15.2,11.8l0,-11.1l7.9,0zm-20.5,31.8c7.3,0 12.6,-5.4 12.6,-12.6c0,-7.3 -5.2,-12.7 -12.6,-12.7c-6.5,0 -11.8,5.4 -11.8,12.7c0,7.2 5.3,12.6 11.8,12.6z" fill="#0096FF" id="svg_5"/><path class="st1" d="m258.4,17.1l7.9,0l0,10.1c2.7,-9.6 8.8,-11.9 15,-10.4l0,7.5c-8.4,-2.3 -15,2.1 -15,9.4l0,21.7l-7.9,0l0,-38.3z" fill="#0096FF" id="svg_6"/><path class="st1" d="m291.2,1.2c2.7,0 4.9,2.2 4.9,4.9s-2.2,4.9 -4.9,4.9s-5,-2.2 -5,-4.9s2.3,-4.9 5,-4.9zm-4,15.9l7.9,0l0,38.3l-7.9,0l0,-38.3z" fill="#0096FF" id="svg_7"/><path class="st3" d="m310.2,46.2c2.7,0 4.9,2.2 4.9,4.9s-2.2,4.9 -4.9,4.9s-5,-2.2 -5,-4.9c0,-2.6 2.3,-4.9 5,-4.9zm-4,-46.2l7.9,0l0,40l-7.9,0l0,-40z" fill="#FF660A" id="svg_8"/></g></svg>