<?xml version="1.0" encoding="UTF-8"?><svg viewBox="0 0 500 75" xmlns="http://www.w3.org/2000/svg" version="1.1"><g><title>Layer 1</title><g id="surface3"><path id="svg_1" fill="rgb(0%,58.823529%,100%)" fill-rule="nonzero" d="m54.04688,22.90234l0,33.07813c0,6.29687 2.54296,8.97656 8.69531,8.97656l2.14062,0l0,9.375l-2.14062,0c-10.96875,0 -16.98828,-4.15234 -18.59375,-12.72656c-3.87891,8.17187 -11.3711,13.66406 -20.46875,13.66406c-13.78125,0 -23.67969,-11.51953 -23.67969,-26.65234c0,-15.13672 9.89844,-26.65235 23.14453,-26.65235c9.76563,0 17.125,6.29297 20.33594,15.80469l0,-14.86719l10.56641,0zm-27.42579,42.58985c9.76563,0 16.85938,-7.23438 16.85938,-16.875c0,-9.77735 -6.95703,-17.01172 -16.85938,-17.01172c-8.69531,0 -15.78515,7.23437 -15.78515,17.01172c0,9.64062 7.08984,16.875 15.78515,16.875zm4.41407,-65.35938l11.77343,0l-11.77343,16.07422l-10.69922,0l10.69922,-16.07422zm0,0"/><path id="svg_2" fill="rgb(0%,58.823529%,100%)" fill-rule="nonzero" d="m71.30469,22.90234l10.57031,0l0,13.52735c3.60938,-12.85938 11.76953,-15.9375 20.06641,-13.92969l0,10.04297c-11.23828,-3.07813 -20.06641,2.8125 -20.06641,12.58984l0,29.0625l-10.57031,0l0,-51.29297zm0,0"/><path id="svg_3" fill="rgb(0%,58.823529%,100%)" fill-rule="nonzero" d="m119.33203,22.90234l0,30.13282c0,7.5 5.35156,12.58984 12.84375,12.58984c7.22266,0 12.70703,-5.08984 12.70703,-12.58984l0,-30.13282l10.57032,0l0,30.13282c0,13.25781 -9.89844,22.36718 -23.27735,22.36718c-13.51172,0 -23.41406,-9.10937 -23.41406,-22.36718l0,-30.13282l10.57031,0zm0,0"/><path id="svg_4" fill="rgb(0%,58.823529%,100%)" fill-rule="nonzero" d="m177.39063,74.33203l-10.56641,0l0,-74.33203l10.56641,0l0,47.00781l21.67578,-23.97265l13.24218,0l-19.80078,21.42968l23.67969,29.86719l-13.375,0l-17.39453,-22.10156l-8.02734,8.57422l0,13.52734zm0,0"/><path id="svg_5" fill="rgb(0%,58.823529%,100%)" fill-rule="nonzero" d="m242.41016,21.96484c16.45312,0 28.22656,13.39063 26.35547,30.26563l-42.41016,0c1.47266,8.17187 8.02734,13.92969 16.85547,13.92969c6.6914,0 12.17578,-3.48047 15.11719,-9.10547l8.83203,3.88281c-4.41407,8.4375 -12.97657,14.33203 -24.21485,14.33203c-15.38672,0 -27.15625,-11.51953 -27.15625,-26.65234c-0.13672,-15.13672 11.3711,-26.65235 26.6211,-26.65235zm15.65234,21.96485c-1.73828,-7.36719 -7.625,-12.85938 -15.78516,-12.85938c-7.76171,0 -13.91406,5.35938 -15.78906,12.85938l31.57422,0zm0,0"/><path id="svg_6" fill="rgb(0%,58.823529%,100%)" fill-rule="nonzero" d="m278.92969,22.90234l10.57031,0l0,13.52735c3.61328,-12.85938 11.77344,-15.9375 20.06641,-13.92969l0,10.04297c-11.23828,-3.07813 -20.06641,2.8125 -20.06641,12.58984l0,29.0625l-10.57031,0l0,-51.29297zm0,0"/><path id="svg_7" fill="rgb(0%,58.823529%,100%)" fill-rule="nonzero" d="m337.66016,21.96484c16.45703,0 28.23047,13.39063 26.35547,30.26563l-42.40625,0c1.46875,8.17187 8.02343,13.92969 16.85546,13.92969c6.6875,0 12.17188,-3.48047 15.11719,-9.10547l8.82813,3.88281c-4.41407,8.4375 -12.97657,14.33203 -24.21485,14.33203c-15.38281,0 -27.15625,-11.51953 -27.15625,-26.65234c0,-15.13672 11.50391,-26.65235 26.6211,-26.65235zm15.78515,21.96485c-1.73828,-7.36719 -7.625,-12.85938 -15.78515,-12.85938c-7.75782,0 -13.91407,5.35938 -15.78516,12.85938l31.57031,0zm0,0"/><path id="svg_8" fill="rgb(0%,58.823529%,100%)" fill-rule="nonzero" d="m392.91406,66.69531c6.6875,0 11.10157,-2.94531 11.10157,-6.96484c0,-11.78516 -31.4375,-2.14063 -31.4375,-22.23047c0,-8.97266 8.5625,-15.53516 20.19921,-15.53516c11.77344,0 19.39844,5.75782 21.00391,14.59766l-10.56641,2.27734c-0.80468,-5.35937 -4.55078,-8.30468 -10.4375,-8.30468c-5.61718,0 -9.63281,2.67968 -9.63281,6.5625c0,11.38281 31.44141,1.875 31.44141,22.63281c0,9.10937 -9.5,15.67187 -21.8086,15.67187c-12.30468,0 -20.19921,-5.75781 -21.80468,-14.59765l10.57031,-2.27735c1.06641,5.35547 4.94922,8.16797 11.37109,8.16797zm0,0"/><path id="svg_9" fill="rgb(0%,58.823529%,100%)" fill-rule="nonzero" d="m448.69922,21.96484c15.38281,0 27.15625,11.51563 27.15625,26.65235c0,15 -11.77344,26.65234 -27.15625,26.65234c-15.38672,0 -27.15625,-11.51953 -27.15625,-26.65234c0,-15.13672 11.76953,-26.65235 27.15625,-26.65235zm0,43.52735c9.36328,0 16.32031,-7.23438 16.32031,-16.875c0,-9.77735 -6.95703,-17.01172 -16.32031,-17.01172c-9.23047,0 -16.32031,7.23437 -16.32031,17.01172c0,9.64062 7.08984,16.875 16.32031,16.875zm-4.81641,-65.35938l10.57032,0l-11.77344,16.07422l-9.63281,0l10.83593,-16.07422zm17.92578,0l10.70313,0l-11.90625,16.07422l-9.63281,0l10.83593,-16.07422zm0,0"/><path id="svg_10" fill="rgb(100%,40%,3.921569%)" fill-rule="nonzero" d="m493.64844,61.875c3.61328,0 6.55469,2.94531 6.55469,6.5625c0,3.61719 -2.94141,6.5625 -6.55469,6.5625c-3.61328,0 -6.55469,-2.94531 -6.55469,-6.5625c-0.13281,-3.48047 2.94141,-6.5625 6.55469,-6.5625zm-5.35156,-61.875l10.57031,0l0,53.57031l-10.57031,0l0,-53.57031zm0,0"/></g></g></svg>